<?xml version="1.0" encoding="UTF-8" standalone="no"?>
<!-- Generator: Adobe Illustrator 18.1.1, SVG Export Plug-In . SVG Version: 6.00 Build 0)  -->

<svg
   xmlns:sketch="http://www.bohemiancoding.com/sketch/ns"
   xmlns:dc="http://purl.org/dc/elements/1.1/"
   xmlns:cc="http://creativecommons.org/ns#"
   xmlns:rdf="http://www.w3.org/1999/02/22-rdf-syntax-ns#"
   xmlns:svg="http://www.w3.org/2000/svg"
   xmlns="http://www.w3.org/2000/svg"
   xmlns:sodipodi="http://sodipodi.sourceforge.net/DTD/sodipodi-0.dtd"
   xmlns:inkscape="http://www.inkscape.org/namespaces/inkscape"
   version="1.1"
   id="Layer_1"
   x="0px"
   y="0px"
   viewBox="-336 437 351 151"
   enable-background="new -336 437 351 151"
   xml:space="preserve"
   inkscape:version="0.91 r13725"
   sodipodi:docname="jupyterhub.svg"><metadata
     id="metadata50"><rdf:RDF><cc:Work
         rdf:about=""><dc:format>image/svg+xml</dc:format><dc:type
           rdf:resource="http://purl.org/dc/dcmitype/StillImage" /></cc:Work></rdf:RDF></metadata><defs
     id="defs48"><linearGradient
       gradientTransform="matrix(348.2257,0,0,-87.3639,217017.59,89582.312)"
       y2="1019.5301"
       x2="-624.03589"
       y1="1019.4888"
       x1="-623.03589"
       gradientUnits="userSpaceOnUse"
       id="Oval-7-Copy-2_1_"><stop
         id="stop12"
         style="stop-color:#979797"
         offset="0" /><stop
         id="stop14"
         style="stop-color:#F1F1F1"
         offset="0.2293" /><stop
         id="stop16"
         style="stop-color:#FFFFFF"
         offset="0.5129" /><stop
         id="stop18"
         style="stop-color:#979797"
         offset="1" /></linearGradient><linearGradient
       gradientTransform="matrix(348.2257,0,0,-87.3639,217017.59,89582.312)"
       y2="1019.5301"
       x2="-624.03589"
       y1="1019.4888"
       x1="-623.03589"
       gradientUnits="userSpaceOnUse"
       id="Oval-7-Copy-3_1_"><stop
         id="stop22"
         style="stop-color:#979797"
         offset="0" /><stop
         id="stop24"
         style="stop-color:#F1F1F1"
         offset="0.1977" /><stop
         id="stop26"
         style="stop-color:#FFFFFF"
         offset="0.567" /><stop
         id="stop28"
         style="stop-color:#979797"
         offset="1" /></linearGradient></defs><sodipodi:namedview
     pagecolor="#ffffff"
     bordercolor="#666666"
     borderopacity="1"
     objecttolerance="10"
     gridtolerance="10"
     guidetolerance="10"
     inkscape:pageopacity="0"
     inkscape:pageshadow="2"
     inkscape:window-width="3840"
     inkscape:window-height="2031"
     id="namedview46"
     showgrid="false"
     inkscape:zoom="1.5629139"
     inkscape:cx="109.91737"
     inkscape:cy="75.5"
     inkscape:window-x="0"
     inkscape:window-y="55"
     inkscape:window-maximized="1"
     inkscape:current-layer="Group" /><title
     id="title3">Group Copy 2</title><desc
     id="desc5">Created with Sketch.</desc><g
     id="Group"
     transform="translate(-47,-13)"
     sketch:type="MSLayerGroup"><path
       inkscape:connector-curvature="0"
       style="fill:none;stroke:url(#Oval-7-Copy-2_1_);stroke-width:1.46500003"
       d="M -100,541.7 C -4.1,523 67.6,495.5 60.3,480.2 c -7.4,-15.3 -91,-12.6 -186.9,6.1 -95.9,18.7 -167.6,46.2 -160.3,61.5 7.3,15.3 91,12.6 186.9,-6.1 l 0,0 z"
       id="Oval-7-Copy-2" /><path
       inkscape:connector-curvature="0"
       style="fill:none;stroke:url(#Oval-7-Copy-3_1_);stroke-width:1.46500003"
       d="M -100,541.7 C -4.1,523 67.6,495.5 60.3,480.2 c -7.4,-15.3 -91,-12.6 -186.9,6.1 -95.9,18.7 -167.6,46.2 -160.3,61.5 7.3,15.3 91,12.6 186.9,-6.1 l 0,0 z"
       id="Oval-7-Copy-3" /><path
       style="fill:#e46e2e"
       inkscape:connector-curvature="0"
       d="m -107,568.9 c -24.6,0 -46,-8.8 -57.2,-21.9 8.4,23.4 30.9,40.2 57.2,40.2 26.3,0 48.7,-16.8 57.2,-40.2 -11.2,13.1 -32.6,21.9 -57.2,21.9"
       id="Fill-9" /><path
       style="fill:#e46e2e"
       inkscape:connector-curvature="0"
       d="m -107.4,483.6 c 24.6,0 46,8.8 57.2,21.9 -8.4,-23.4 -30.9,-40.2 -57.2,-40.2 -26.3,0 -48.7,16.8 -57.2,40.2 11.2,-13.1 32.6,-21.9 57.2,-21.9"
       id="Fill-10" /><path
       style="fill:#767474"
       inkscape:connector-curvature="0"
       d="m -150.1,600.5 c -5.3,0.2 -9.7,-3.9 -10,-9.1 -0.2,-5.3 3.9,-9.7 9.1,-10 5.3,-0.2 9.7,3.9 10,9.1 0.2,5.3 -3.9,9.8 -9.1,10 z"
       id="Fill-11" /><path
       style="fill:#767474"
       inkscape:connector-curvature="0"
       d="m -157.5,476 c -3.3,0.1 -6.1,-2.4 -6.2,-5.7 -0.1,-3.3 2.4,-6.1 5.7,-6.2 3.3,-0.1 6.1,2.4 6.2,5.7 0.1,3.3 -2.4,6 -5.7,6.2 z"
       id="Fill-12" /><path
       style="fill:#767474"
       inkscape:connector-curvature="0"
       d="m -62.6,468.9 c -5.1,0.2 -9.4,-3.8 -9.7,-8.9 -0.2,-5.1 3.8,-9.5 8.9,-9.7 5.1,-0.2 9.4,3.8 9.7,8.9 0.2,5.1 -3.8,9.5 -8.9,9.7 z"
       id="Fill-8" /><g
       id="Group-Copy"
       transform="translate(0.297974,69.567815)"><path
         id="Fill-1"
         d="m -218.3,464.2 c 0,5.5 -0.4,7.3 -1.6,8.6 -1,1.1 -2.7,1.6 -4.6,1.8 l 0.4,3.3 c 2.2,0 5.3,-0.8 7.2,-2.6 2.1,-2.1 2.8,-5 2.8,-9.4 l 0,-20.9 -4.2,0 0,19.2"
         inkscape:connector-curvature="0"
         style="fill:#313940" /><path
         id="Fill-2"
         d="m -186.9,461.7 c 0,2.4 0,4.5 0.2,6.3 l -3.7,0 -0.2,-3.8 -0.1,0 c -1.1,1.9 -3.5,4.3 -7.7,4.3 -3.6,0 -8,-2 -8,-10.1 l 0,-13.4 4.2,0 0,12.7 c 0,4.4 1.3,7.3 5.2,7.3 2.8,0 4.8,-1.9 5.5,-3.8 0.2,-0.6 0.4,-1.4 0.4,-2.1 l 0,-14.1 4.2,0 0,16.7"
         inkscape:connector-curvature="0"
         style="fill:#313940" /><path
         id="Fill-3"
         d="m -178.9,452.5 c 0,-2.9 -0.1,-5.3 -0.2,-7.5 l 3.8,0 0.2,3.9 0.1,0 c 1.7,-2.8 4.4,-4.5 8.2,-4.5 5.6,0 9.8,4.7 9.8,11.7 0,8.3 -5.1,12.3 -10.5,12.3 -3.1,0 -5.7,-1.3 -7.1,-3.6 l -0.1,0 0,12.5 -4.2,0 0,-24.8 0,0 z m 4.1,6.1 c 0,0.6 0.1,1.2 0.2,1.7 0.8,2.9 3.3,4.9 6.3,4.9 4.4,0 7,-3.6 7,-8.9 0,-4.6 -2.4,-8.5 -6.9,-8.5 -2.9,0 -5.5,2 -6.4,5.2 -0.1,0.5 -0.3,1.1 -0.3,1.7 l 0,3.9 0.1,0 z"
         inkscape:connector-curvature="0"
         style="fill:#313940" /><path
         id="Fill-4"
         d="m -149.5,445 5.1,13.6 c 0.5,1.5 1.1,3.3 1.5,4.7 l 0.1,0 c 0.4,-1.4 0.9,-3.1 1.5,-4.8 l 4.6,-13.5 4.4,0 -6.3,16.4 c -3,7.9 -5.1,11.9 -7.9,14.4 -2.1,1.8 -4.1,2.5 -5.2,2.7 l -1.1,-3.5 c 1.1,-0.3 2.4,-1 3.7,-2 1.1,-0.9 2.6,-2.5 3.5,-4.7 0.2,-0.4 0.3,-0.8 0.3,-1 0,-0.2 -0.1,-0.6 -0.3,-1.1 l -8.6,-21.2 4.7,0"
         inkscape:connector-curvature="0"
         style="fill:#313940" /><path
         id="Fill-5"
         d="m -121.3,438.4 0,6.6 6,0 0,3.2 -6,0 0,12.4 c 0,2.8 0.8,4.5 3.2,4.5 1.1,0 1.9,-0.1 2.4,-0.3 l 0.2,3.1 c -0.8,0.3 -2.1,0.6 -3.7,0.6 -2,0 -3.5,-0.6 -4.5,-1.8 -1.2,-1.2 -1.6,-3.3 -1.6,-6 l 0,-12.5 -3.6,0 0,-3.2 3.6,0 0,-5.5 4,-1.1"
         inkscape:connector-curvature="0"
         style="fill:#313940" /><path
         id="Fill-6"
         d="m -107.5,457.3 c 0.1,5.7 3.7,8 7.9,8 3,0 4.8,-0.5 6.4,-1.2 l 0.7,3 c -1.5,0.7 -4,1.4 -7.7,1.4 -7.1,0 -11.4,-4.7 -11.4,-11.6 0,-6.9 4.1,-12.4 10.9,-12.4 7.6,0 9.6,6.6 9.6,10.8 0,0.9 -0.1,1.5 -0.1,1.9 l -16.3,0 0,0.1 z m 12.3,-3 c 0,-2.7 -1.1,-6.8 -5.8,-6.8 -4.3,0 -6.1,3.9 -6.5,6.8 l 12.3,0 0,0 z"
         inkscape:connector-curvature="0"
         style="fill:#313940" /><path
         id="Fill-7"
         d="m -84.9,452.2 c 0,-2.7 0,-5 -0.2,-7.2 l 3.7,0 0.1,4.5 0.2,0 c 1.1,-3.1 3.6,-5 6.4,-5 0.5,0 0.8,0 1.2,0.1 l 0,3.9 c -0.4,-0.1 -0.9,-0.1 -1.4,-0.1 -3,0 -5.1,2.2 -5.6,5.4 -0.1,0.6 -0.2,1.2 -0.2,1.9 l 0,12.3 -4.2,0 0,-15.8"
         inkscape:connector-curvature="0"
         style="fill:#313940" /></g><text
       xml:space="preserve"
       style="font-style:normal;font-variant:normal;font-weight:normal;font-stretch:normal;font-size:45px;line-height:125%;font-family:Sans;-inkscape-font-specification:'Sans, Normal';text-align:start;letter-spacing:0px;word-spacing:0px;writing-mode:lr-tb;text-anchor:start;fill:#000000;fill-opacity:1;stroke:none;stroke-width:1px;stroke-linecap:butt;stroke-linejoin:miter;stroke-opacity:1"
       x="-67.703384"
       y="539.17798"
       id="text3473"
       sodipodi:linespacing="125%"><tspan
         sodipodi:role="line"
         id="tspan3475"
         x="-67.703384"
         y="539.17798"
         style="font-style:normal;font-variant:normal;font-weight:normal;font-stretch:normal;font-size:45px;line-height:125%;font-family:Sans;-inkscape-font-specification:'Sans, Normal';text-align:start;writing-mode:lr-tb;text-anchor:start;fill:#808080">time</tspan></text>
</g></svg>